<svg data-v-423bf9ae="" xmlns="http://www.w3.org/2000/svg" viewBox="0 0 452 90" class="iconLeft"><!----><!----><!----><g data-v-423bf9ae="" id="beb57cdc-7d9f-43a0-899a-46f8f315da82" fill="white" transform="matrix(5.524861567945867,0,0,5.524861567945867,104.64089101791515,7.486187592513396)"><path d="M0.97 10.50L0.97 1.36L3.57 1.36L3.57 1.36Q4.28 1.36 4.92 1.50L4.92 1.50L4.92 1.50Q5.56 1.64 6.03 1.97L6.03 1.97L6.03 1.97Q6.50 2.31 6.78 2.86L6.78 2.86L6.78 2.86Q7.06 3.40 7.06 4.21L7.06 4.21L7.06 4.21Q7.06 5.00 6.78 5.54L6.78 5.54L6.78 5.54Q6.50 6.08 6.03 6.41L6.03 6.41L6.03 6.41Q5.57 6.75 4.98 6.89L4.98 6.89L4.98 6.89Q4.38 7.04 3.75 7.04L3.75 7.04L2.90 7.04L2.90 10.50L0.97 10.50ZM2.91 5.49L3.43 5.49L3.43 5.49Q3.78 5.49 4.07 5.43L4.07 5.43L4.07 5.43Q4.37 5.38 4.58 5.23L4.58 5.23L4.58 5.23Q4.80 5.08 4.92 4.83L4.92 4.83L4.92 4.83Q5.04 4.58 5.04 4.20L5.04 4.20L5.04 4.20Q5.04 3.81 4.92 3.56L4.92 3.56L4.92 3.56Q4.80 3.30 4.58 3.16L4.58 3.16L4.58 3.16Q4.37 3.02 4.07 2.97L4.07 2.97L4.07 2.97Q3.78 2.91 3.43 2.91L3.43 2.91L2.91 2.91L2.91 5.49ZM10.23 8.48L10.23 8.48L10.23 8.48Q10.25 8.72 10.36 8.86L10.36 8.86L10.36 8.86Q10.47 9.00 10.63 9.06L10.63 9.06L10.63 9.06Q10.79 9.13 11.00 9.13L11.00 9.13L11.00 9.13Q11.20 9.14 11.42 9.11L11.42 9.11L11.42 10.56L11.42 10.56Q11.23 10.60 11.08 10.62L11.08 10.62L11.08 10.62Q10.93 10.64 10.82 10.65L10.82 10.65L10.82 10.65Q10.70 10.67 10.61 10.65L10.61 10.65L10.61 10.65Q10.08 10.65 9.66 10.61L9.66 10.61L9.66 10.61Q9.24 10.57 8.95 10.34L8.95 10.34L8.95 10.34Q8.65 10.11 8.50 9.64L8.50 9.64L8.50 9.64Q8.34 9.17 8.34 8.30L8.34 8.30L8.34 1.55L10.23 1.55L10.23 8.48ZM15.92 3.12L15.92 3.12L15.92 3.12Q16.38 3.12 16.91 3.27L16.91 3.27L16.91 3.27Q17.44 3.42 17.91 3.75L17.91 3.75L17.91 3.75Q18.37 4.07 18.66 4.59L18.66 4.59L18.66 4.59Q18.96 5.11 18.94 5.85L18.94 5.85L18.94 10.50L17.57 10.50L17.57 10.50Q17.57 10.50 17.53 10.33L17.53 10.33L17.53 10.33Q17.49 10.16 17.44 9.95L17.44 9.95L17.44 9.95Q17.39 9.74 17.35 9.58L17.35 9.58L17.35 9.58Q17.30 9.42 17.30 9.44L17.30 9.44L17.30 9.44Q17.11 9.79 16.79 10.05L16.79 10.05L16.79 10.05Q16.51 10.29 16.07 10.47L16.07 10.47L16.07 10.47Q15.62 10.65 14.98 10.65L14.98 10.65L14.98 10.65Q14.53 10.65 14.10 10.52L14.10 10.52L14.10 10.52Q13.66 10.39 13.32 10.13L13.32 10.13L13.32 10.13Q12.98 9.87 12.76 9.48L12.76 9.48L12.76 9.48Q12.54 9.09 12.53 8.57L12.53 8.57L12.53 8.57Q12.50 8.02 12.68 7.59L12.68 7.59L12.68 7.59Q12.85 7.17 13.18 6.86L13.18 6.86L13.18 6.86Q13.51 6.55 13.97 6.36L13.97 6.36L13.97 6.36Q14.43 6.17 14.98 6.10L14.98 6.10L14.98 6.10Q15.50 6.03 16.11 6.03L16.11 6.03L16.11 6.03Q16.73 6.03 17.22 6.06L17.22 6.06L17.22 5.84L17.22 5.84Q17.22 5.24 16.95 4.93L16.95 4.93L16.95 4.93Q16.69 4.63 16.29 4.54L16.29 4.54L16.29 4.54Q15.89 4.45 15.41 4.52L15.41 4.52L15.41 4.52Q14.94 4.59 14.50 4.72L14.50 4.72L14.50 4.72Q14.07 4.86 13.74 5.00L13.74 5.00L13.74 5.00Q13.41 5.15 13.33 5.22L13.33 5.22L13.33 3.81L13.33 3.81Q13.34 3.79 13.58 3.69L13.58 3.69L13.58 3.69Q13.82 3.58 14.18 3.46L14.18 3.46L14.18 3.46Q14.55 3.33 15.00 3.23L15.00 3.23L15.00 3.23Q15.46 3.12 15.92 3.12ZM16.81 8.68L16.81 8.68L16.81 8.68Q17.05 8.37 17.13 7.99L17.13 7.99L17.13 7.99Q17.21 7.62 17.21 7.20L17.21 7.20L16.39 7.20L16.39 7.20Q16.07 7.20 15.71 7.24L15.71 7.24L15.71 7.24Q15.34 7.28 15.04 7.41L15.04 7.41L15.04 7.41Q14.73 7.53 14.52 7.78L14.52 7.78L14.52 7.78Q14.31 8.02 14.31 8.44L14.31 8.44L14.31 8.44Q14.31 8.90 14.65 9.11L14.65 9.11L14.65 9.11Q14.99 9.32 15.50 9.32L15.50 9.32L15.50 9.32Q15.93 9.32 16.26 9.15L16.26 9.15L16.26 9.15Q16.59 8.97 16.81 8.68ZM24.96 3.12L24.96 3.12L24.96 3.12Q25.61 3.12 26.07 3.34L26.07 3.34L26.07 3.34Q26.53 3.56 26.83 3.93L26.83 3.93L26.83 3.93Q27.13 4.31 27.27 4.83L27.27 4.83L27.27 4.83Q27.41 5.35 27.41 5.95L27.41 5.95L27.41 10.50L25.54 10.50L25.54 6.58L25.54 6.58Q25.54 5.54 25.26 5.05L25.26 5.05L25.26 5.05Q24.98 4.56 24.29 4.56L24.29 4.56L24.29 4.56Q23.46 4.56 23.06 5.25L23.06 5.25L23.06 5.25Q22.67 5.94 22.67 7.06L22.67 7.06L22.67 10.50L20.79 10.50L20.79 3.29L22.19 3.29L22.57 4.27L22.57 4.27Q22.71 4.12 22.88 3.91L22.88 3.91L22.88 3.91Q23.04 3.71 23.30 3.54L23.30 3.54L23.30 3.54Q23.56 3.36 23.96 3.24L23.96 3.24L23.96 3.24Q24.36 3.12 24.96 3.12ZM32.49 3.12L32.49 3.12L32.49 3.12Q33.05 3.12 33.71 3.29L33.71 3.29L33.71 3.29Q34.37 3.46 34.94 3.88L34.94 3.88L34.94 3.88Q35.52 4.30 35.90 5.03L35.90 5.03L35.90 5.03Q36.29 5.75 36.29 6.89L36.29 6.89L36.29 6.89Q36.29 8.02 35.90 8.75L35.90 8.75L35.90 8.75Q35.52 9.48 34.94 9.90L34.94 9.90L34.94 9.90Q34.37 10.32 33.71 10.49L33.71 10.49L33.71 10.49Q33.05 10.65 32.49 10.65L32.49 10.65L32.49 10.65Q31.93 10.65 31.28 10.49L31.28 10.49L31.28 10.49Q30.62 10.32 30.05 9.90L30.05 9.90L30.05 9.90Q29.48 9.48 29.11 8.75L29.11 8.75L29.11 8.75Q28.73 8.02 28.73 6.89L28.73 6.89L28.73 6.89Q28.73 5.75 29.11 5.03L29.11 5.03L29.11 5.03Q29.48 4.30 30.05 3.88L30.05 3.88L30.05 3.88Q30.62 3.46 31.28 3.29L31.28 3.29L31.28 3.29Q31.93 3.12 32.49 3.12ZM32.49 9.25L32.49 9.25L32.49 9.25Q33.28 9.25 33.80 8.64L33.80 8.64L33.80 8.64Q34.33 8.02 34.33 6.89L34.33 6.89L34.33 6.89Q34.33 5.75 33.80 5.14L33.80 5.14L33.80 5.14Q33.28 4.54 32.49 4.54L32.49 4.54L32.49 4.54Q31.74 4.54 31.22 5.14L31.22 5.14L31.22 5.14Q30.70 5.75 30.70 6.89L30.70 6.89L30.70 6.89Q30.70 7.45 30.84 7.89L30.84 7.89L30.84 7.89Q30.98 8.33 31.22 8.63L31.22 8.63L31.22 8.63Q31.46 8.93 31.79 9.09L31.79 9.09L31.79 9.09Q32.12 9.25 32.49 9.25ZM43.79 10.50L43.01 8.40L39.83 8.40L39.05 10.50L36.92 10.50L40.28 1.36L42.57 1.36L45.93 10.50L43.79 10.50ZM40.29 6.64L42.56 6.64L42.56 6.64Q42.56 6.64 42.44 6.34L42.44 6.34L42.44 6.34Q42.32 6.05 42.15 5.61L42.15 5.61L42.15 5.61Q41.97 5.17 41.77 4.66L41.77 4.66L41.77 4.66Q41.57 4.16 41.43 3.77L41.43 3.77L41.43 3.77Q41.10 4.56 40.85 5.19L40.85 5.19L40.85 5.19Q40.74 5.46 40.64 5.72L40.64 5.72L40.64 5.72Q40.54 5.98 40.46 6.18L40.46 6.18L40.46 6.18Q40.38 6.38 40.33 6.51L40.33 6.51L40.33 6.51Q40.29 6.64 40.29 6.64L40.29 6.64ZM51.14 10.65L51.14 10.65L51.14 10.65Q50.60 10.65 50.19 10.49L50.19 10.49L50.19 10.49Q49.78 10.32 49.50 10.11L49.50 10.11L49.50 10.11Q49.18 9.87 48.94 9.56L48.94 9.56L48.94 12.22L47.07 12.22L47.07 3.29L48.52 3.29L48.89 4.24L48.89 4.24Q49.10 3.93 49.42 3.68L49.42 3.68L49.42 3.68Q49.70 3.47 50.12 3.30L50.12 3.30L50.12 3.30Q50.54 3.12 51.14 3.12L51.14 3.12L51.14 3.12Q51.97 3.12 52.54 3.42L52.54 3.42L52.54 3.42Q53.12 3.72 53.47 4.23L53.47 4.23L53.47 4.23Q53.83 4.73 53.99 5.41L53.99 5.41L53.99 5.41Q54.15 6.09 54.15 6.85L54.15 6.85L54.15 6.85Q54.15 7.60 53.99 8.29L53.99 8.29L53.99 8.29Q53.83 8.99 53.47 9.51L53.47 9.51L53.47 9.51Q53.12 10.04 52.54 10.35L52.54 10.35L52.54 10.35Q51.97 10.65 51.14 10.65ZM50.55 4.59L50.55 4.59L50.55 4.59Q49.88 4.59 49.41 5.14L49.41 5.14L49.41 5.14Q48.94 5.68 48.94 6.85L48.94 6.85L48.94 6.85Q48.94 7.99 49.41 8.60L49.41 8.60L49.41 8.60Q49.88 9.20 50.55 9.20L50.55 9.20L50.55 9.20Q50.89 9.20 51.18 9.04L51.18 9.04L51.18 9.04Q51.48 8.89 51.69 8.60L51.69 8.60L51.69 8.60Q51.91 8.30 52.04 7.86L52.04 7.86L52.04 7.86Q52.18 7.42 52.18 6.85L52.18 6.85L52.18 6.85Q52.18 6.27 52.04 5.84L52.04 5.84L52.04 5.84Q51.91 5.42 51.69 5.14L51.69 5.14L51.69 5.14Q51.48 4.86 51.18 4.72L51.18 4.72L51.18 4.72Q50.89 4.59 50.55 4.59ZM59.70 10.65L59.70 10.65L59.70 10.65Q59.15 10.65 58.74 10.49L58.74 10.49L58.74 10.49Q58.34 10.32 58.06 10.11L58.06 10.11L58.06 10.11Q57.74 9.87 57.50 9.56L57.50 9.56L57.50 12.22L55.62 12.22L55.62 3.29L57.08 3.29L57.44 4.24L57.44 4.24Q57.65 3.93 57.97 3.68L57.97 3.68L57.97 3.68Q58.25 3.47 58.67 3.30L58.67 3.30L58.67 3.30Q59.09 3.12 59.70 3.12L59.70 3.12L59.70 3.12Q60.52 3.12 61.10 3.42L61.10 3.42L61.10 3.42Q61.67 3.72 62.03 4.23L62.03 4.23L62.03 4.23Q62.38 4.73 62.54 5.41L62.54 5.41L62.54 5.41Q62.71 6.09 62.71 6.85L62.71 6.85L62.71 6.85Q62.71 7.60 62.54 8.29L62.54 8.29L62.54 8.29Q62.38 8.99 62.03 9.51L62.03 9.51L62.03 9.51Q61.67 10.04 61.10 10.35L61.10 10.35L61.10 10.35Q60.52 10.65 59.70 10.65ZM59.11 4.59L59.11 4.59L59.11 4.59Q58.44 4.59 57.97 5.14L57.97 5.14L57.97 5.14Q57.50 5.68 57.50 6.85L57.50 6.85L57.50 6.85Q57.50 7.99 57.97 8.60L57.97 8.60L57.97 8.60Q58.44 9.20 59.11 9.20L59.11 9.20L59.11 9.20Q59.44 9.20 59.74 9.04L59.74 9.04L59.74 9.04Q60.03 8.89 60.25 8.60L60.25 8.60L60.25 8.60Q60.47 8.30 60.60 7.86L60.60 7.86L60.60 7.86Q60.73 7.42 60.73 6.85L60.73 6.85L60.73 6.85Q60.73 6.27 60.60 5.84L60.60 5.84L60.60 5.84Q60.47 5.42 60.25 5.14L60.25 5.14L60.25 5.14Q60.03 4.86 59.74 4.72L59.74 4.72L59.74 4.72Q59.44 4.59 59.11 4.59Z"></path></g><!----><g data-v-423bf9ae="" id="88918c48-de5a-48bb-b084-bef9c036a2cf" transform="matrix(4.5,0,0,4.5,0,0)" stroke="none" fill="white"><path d="M20 0v20H0V0h20zM3 3v14h14V3H3zm6 2.5v3H5v-3h4z"></path></g><!----></svg>